PathFileType	4	(X/Y/Z)	E:/New_biomech_experiments/Elbow Flexion/Shreyas_25_06_24_elbow_flexion/Session 2024-06-26/Shreyas_ElbFlex_pp_t02_26_06_24.trc	
DataRate	CameraRate	NumFrames	NumMarkers	Units	OrigDataRate	OrigDataStartFrame	OrigNumFrames	
120.00	120.00	16	19	m	120.00	1	4832	
Frame#	Time	LFHD			LBHD			T10			C7			RBHD			PRSHO			RSHO			STRN			RFHD			CLAV			RWRA			RWRB			ARSHO			MRELB			RFRM			RHAND			RELB			RUPA			MRHAND			
		X1	Y1	Z1	X2	Y2	Z2	X3	Y3	Z3	X4	Y4	Z4	X5	Y5	Z5	X6	Y6	Z6	X7	Y7	Z7	X8	Y8	Z8	X9	Y9	Z9	X10	Y10	Z10	X11	Y11	Z11	X12	Y12	Z12	X13	Y13	Z13	X14	Y14	Z14	X15	Y15	Z15	X16	Y16	Z16	X17	Y17	Z17	X18	Y18	Z18	X19	Y19	Z19	

1	0.000	0.08704	1.84038	-0.04262	-0.01861	1.74200	-0.07163	-0.07828	1.33814	-0.02330	-0.05305	1.54897	-0.01058	-0.04230	1.75830	0.06413	-0.08424	1.45309	0.11579	0.03237	1.50428	0.20176	0.18077	1.34402	-0.00792	0.06110	1.82223	0.08252	0.14388	1.46834	-0.00172	0.24317	1.15960	0.16007	0.25656	1.13860	0.25683	0.12000	1.45841	0.11042	-0.01113	1.14283	0.16418	0.13148	1.17270	0.26089	0.37895	1.15014	0.14911	-0.00207	1.19360	0.27300	0.00872	1.31175	0.25000	0.35063	1.11585	0.26321 
2	0.008	0.08708	1.84039	-0.04268	-0.01859	1.74203	-0.07172	-0.07828	1.33811	-0.02336	-0.05308	1.54897	-0.01064	-0.04232	1.75832	0.06401	-0.08425	1.45307	0.11573	0.03235	1.50427	0.20169	0.18075	1.34399	-0.00800	0.06113	1.82224	0.08245	0.14385	1.46833	-0.00180	0.24317	1.15965	0.16002	0.25656	1.13867	0.25678	0.11997	1.45840	0.11034	-0.01113	1.14282	0.16414	0.13148	1.17274	0.26083	0.37896	1.15020	0.14905	-0.00208	1.19361	0.27296	0.00871	1.31175	0.24994	0.35065	1.11589	0.26314 
3	0.017	0.08713	1.84040	-0.04275	-0.01856	1.74206	-0.07180	-0.07827	1.33809	-0.02342	-0.05312	1.54897	-0.01071	-0.04231	1.75834	0.06392	-0.08426	1.45306	0.11567	0.03233	1.50427	0.20162	0.18073	1.34397	-0.00808	0.06115	1.82225	0.08239	0.14381	1.46832	-0.00189	0.24317	1.15971	0.15997	0.25656	1.13874	0.25673	0.11995	1.45839	0.11027	-0.01113	1.14282	0.16410	0.13148	1.17278	0.26077	0.37896	1.15026	0.14899	-0.00209	1.19361	0.27292	0.00870	1.31176	0.24988	0.35067	1.11594	0.26307 
4	0.025	0.08718	1.84040	-0.04281	-0.01854	1.74209	-0.07187	-0.07827	1.33807	-0.02348	-0.05316	1.54897	-0.01077	-0.04229	1.75835	0.06384	-0.08428	1.45304	0.11561	0.03231	1.50426	0.20155	0.18070	1.34395	-0.00816	0.06117	1.82227	0.08233	0.14377	1.46831	-0.00197	0.24317	1.15977	0.15991	0.25656	1.13881	0.25668	0.11993	1.45838	0.11020	-0.01113	1.14281	0.16405	0.13147	1.17282	0.26071	0.37897	1.15031	0.14893	-0.00209	1.19361	0.27288	0.00869	1.31175	0.24982	0.35070	1.11597	0.26299 
5	0.033	0.08722	1.84039	-0.04288	-0.01851	1.74211	-0.07194	-0.07827	1.33805	-0.02354	-0.05319	1.54897	-0.01084	-0.04226	1.75837	0.06378	-0.08429	1.45303	0.11555	0.03229	1.50426	0.20149	0.18068	1.34393	-0.00825	0.06119	1.82228	0.08226	0.14374	1.46829	-0.00205	0.24318	1.15983	0.15985	0.25656	1.13888	0.25663	0.11990	1.45837	0.11013	-0.01113	1.14280	0.16401	0.13148	1.17286	0.26065	0.37898	1.15036	0.14888	-0.00209	1.19361	0.27284	0.00868	1.31175	0.24976	0.35073	1.11600	0.26292 
6	0.042	0.08725	1.84039	-0.04294	-0.01849	1.74213	-0.07201	-0.07827	1.33803	-0.02360	-0.05324	1.54897	-0.01092	-0.04224	1.75838	0.06370	-0.08431	1.45301	0.11549	0.03226	1.50425	0.20142	0.18066	1.34391	-0.00833	0.06121	1.82230	0.08219	0.14370	1.46828	-0.00213	0.24319	1.15989	0.15980	0.25657	1.13896	0.25658	0.11988	1.45836	0.11006	-0.01113	1.14279	0.16397	0.13148	1.17290	0.26059	0.37899	1.15041	0.14883	-0.00209	1.19361	0.27279	0.00867	1.31175	0.24970	0.35076	1.11603	0.26284 
7	0.050	0.08728	1.84038	-0.04301	-0.01847	1.74216	-0.07208	-0.07828	1.33800	-0.02366	-0.05328	1.54897	-0.01100	-0.04223	1.75839	0.06363	-0.08433	1.45299	0.11543	0.03224	1.50425	0.20135	0.18063	1.34389	-0.00842	0.06123	1.82233	0.08212	0.14367	1.46827	-0.00220	0.24321	1.15995	0.15974	0.25658	1.13904	0.25653	0.11985	1.45835	0.10999	-0.01112	1.14278	0.16392	0.13149	1.17294	0.26053	0.37901	1.15044	0.14879	-0.00208	1.19361	0.27275	0.00866	1.31174	0.24964	0.35080	1.11604	0.26277 
8	0.058	0.08731	1.84037	-0.04309	-0.01846	1.74220	-0.07216	-0.07829	1.33798	-0.02372	-0.05333	1.54898	-0.01110	-0.04223	1.75841	0.06355	-0.08435	1.45297	0.11537	0.03221	1.50424	0.20128	0.18061	1.34387	-0.00850	0.06125	1.82234	0.08205	0.14363	1.46825	-0.00228	0.24323	1.16001	0.15968	0.25660	1.13913	0.25649	0.11982	1.45835	0.10993	-0.01111	1.14277	0.16388	0.13150	1.17299	0.26048	0.37903	1.15047	0.14874	-0.00207	1.19361	0.27271	0.00866	1.31174	0.24957	0.35085	1.11605	0.26269 
9	0.067	0.08732	1.84036	-0.04317	-0.01845	1.74223	-0.07223	-0.07829	1.33796	-0.02378	-0.05339	1.54899	-0.01119	-0.04223	1.75843	0.06347	-0.08437	1.45295	0.11531	0.03218	1.50423	0.20121	0.18058	1.34384	-0.00858	0.06127	1.82233	0.08198	0.14358	1.46824	-0.00235	0.24325	1.16007	0.15962	0.25661	1.13921	0.25645	0.11979	1.45834	0.10986	-0.01109	1.14276	0.16383	0.13151	1.17303	0.26042	0.37905	1.15050	0.14870	-0.00206	1.19360	0.27266	0.00865	1.31173	0.24951	0.35091	1.11606	0.26262 
10	0.075	0.08734	1.84035	-0.04325	-0.01844	1.74226	-0.07231	-0.07830	1.33793	-0.02384	-0.05344	1.54899	-0.01128	-0.04224	1.75845	0.06337	-0.08439	1.45293	0.11525	0.03215	1.50422	0.20114	0.18055	1.34381	-0.00867	0.06129	1.82233	0.08191	0.14354	1.46822	-0.00243	0.24327	1.16012	0.15957	0.25663	1.13930	0.25641	0.11976	1.45834	0.10979	-0.01108	1.14275	0.16377	0.13153	1.17307	0.26036	0.37908	1.15052	0.14866	-0.00204	1.19360	0.27261	0.00864	1.31172	0.24945	0.35097	1.11606	0.26254 
11	0.083	0.08735	1.84035	-0.04334	-0.01844	1.74229	-0.07238	-0.07831	1.33790	-0.02389	-0.05349	1.54899	-0.01137	-0.04227	1.75847	0.06326	-0.08441	1.45290	0.11519	0.03212	1.50421	0.20108	0.18052	1.34379	-0.00874	0.06131	1.82234	0.08183	0.14350	1.46820	-0.00251	0.24330	1.16017	0.15951	0.25666	1.13937	0.25637	0.11973	1.45833	0.10972	-0.01106	1.14274	0.16372	0.13155	1.17310	0.26030	0.37911	1.15054	0.14861	-0.00203	1.19359	0.27256	0.00863	1.31170	0.24938	0.35103	1.11605	0.26246 
12	0.092	0.08735	1.84034	-0.04342	-0.01844	1.74231	-0.07246	-0.07831	1.33787	-0.02395	-0.05355	1.54900	-0.01148	-0.04230	1.75848	0.06316	-0.08443	1.45288	0.11513	0.03209	1.50420	0.20101	0.18050	1.34378	-0.00881	0.06132	1.82235	0.08175	0.14345	1.46817	-0.00259	0.24333	1.16022	0.15946	0.25668	1.13945	0.25633	0.11970	1.45833	0.10965	-0.01103	1.14273	0.16367	0.13157	1.17313	0.26025	0.37914	1.15057	0.14857	-0.00201	1.19358	0.27251	0.00862	1.31169	0.24932	0.35110	1.11605	0.26238 
13	0.100	0.08736	1.84033	-0.04351	-0.01844	1.74232	-0.07254	-0.07832	1.33785	-0.02400	-0.05361	1.54900	-0.01157	-0.04232	1.75848	0.06307	-0.08445	1.45285	0.11506	0.03206	1.50419	0.20095	0.18047	1.34377	-0.00888	0.06132	1.82236	0.08166	0.14340	1.46814	-0.00268	0.24336	1.16026	0.15941	0.25671	1.13951	0.25629	0.11967	1.45833	0.10959	-0.01100	1.14272	0.16362	0.13159	1.17315	0.26019	0.37918	1.15060	0.14853	-0.00199	1.19357	0.27246	0.00862	1.31167	0.24925	0.35116	1.11605	0.26231 
14	0.108	0.08735	1.84032	-0.04360	-0.01845	1.74233	-0.07261	-0.07833	1.33782	-0.02405	-0.05366	1.54899	-0.01165	-0.04234	1.75849	0.06298	-0.08447	1.45283	0.11500	0.03204	1.50418	0.20088	0.18045	1.34376	-0.00895	0.06133	1.82236	0.08158	0.14335	1.46811	-0.00277	0.24338	1.16030	0.15936	0.25674	1.13957	0.25625	0.11964	1.45834	0.10952	-0.01098	1.14270	0.16356	0.13161	1.17316	0.26014	0.37922	1.15064	0.14849	-0.00197	1.19356	0.27241	0.00861	1.31166	0.24918	0.35121	1.11605	0.26224 
15	0.117	0.08735	1.84031	-0.04370	-0.01847	1.74232	-0.07269	-0.07834	1.33779	-0.02410	-0.05370	1.54897	-0.01171	-0.04235	1.75850	0.06289	-0.08449	1.45280	0.11494	0.03201	1.50417	0.20082	0.18042	1.34373	-0.00902	0.06133	1.82236	0.08149	0.14331	1.46810	-0.00283	0.24341	1.16033	0.15931	0.25677	1.13962	0.25621	0.11962	1.45835	0.10946	-0.01095	1.14269	0.16351	0.13163	1.17317	0.26008	0.37926	1.15068	0.14845	-0.00194	1.19354	0.27236	0.00861	1.31164	0.24912	0.35127	1.11606	0.26217 
16	0.125	0.08734	1.84030	-0.04379	-0.01848	1.74231	-0.07278	-0.07834	1.33777	-0.02415	-0.05373	1.54894	-0.01176	-0.04237	1.75851	0.06281	-0.08451	1.45277	0.11488	0.03199	1.50415	0.20076	0.18040	1.34372	-0.00909	0.06132	1.82236	0.08140	0.14328	1.46811	-0.00288	0.24344	1.16036	0.15927	0.25681	1.13966	0.25618	0.11959	1.45836	0.10939	-0.01092	1.14267	0.16345	0.13165	1.17318	0.26003	0.37929	1.15073	0.14841	-0.00192	1.19353	0.27230	0.00861	1.31162	0.24905	0.35132	1.11608	0.26210 
